<?xml version="1.0" encoding="utf-8"?>
<!-- Generator: Adobe Illustrator 14.0.0, SVG Export Plug-In . SVG Version: 6.00 Build 43363)  -->
<!DOCTYPE svg PUBLIC "-//W3C//DTD SVG 1.1//EN" "http://www.w3.org/Graphics/SVG/1.1/DTD/svg11.dtd">
<svg version="1.1" id="Ebene_1" xmlns="http://www.w3.org/2000/svg" xmlns:xlink="http://www.w3.org/1999/xlink" x="0px" y="0px"
	 width="201px" height="124px" viewBox="0 0 201 124" enable-background="new 0 0 201 124" xml:space="preserve">
<g>
	<linearGradient id="SVGID_1_" gradientUnits="userSpaceOnUse" x1="47.0591" y1="67.5117" x2="47.0591" y2="54.6143">
		<stop  offset="0.0056" style="stop-color:#3266A9"/>
		<stop  offset="1" style="stop-color:#0099FF"/>
	</linearGradient>
	<path fill="url(#SVGID_1_)" d="M50.282,55.502c-0.784-0.592-2.104-0.888-3.961-0.888h-1.376l-2.283,12.898h1.779
		c3.76,0,6.032-2.245,6.815-6.733c0.134-0.871,0.202-1.642,0.202-2.313C51.457,57.081,51.064,56.093,50.282,55.502z"/>
	<linearGradient id="SVGID_2_" gradientUnits="userSpaceOnUse" x1="65.9609" y1="49.104" x2="65.9609" y2="36.9434">
		<stop  offset="0.0056" style="stop-color:#3266A9"/>
		<stop  offset="1" style="stop-color:#0099FF"/>
	</linearGradient>
	<path fill="url(#SVGID_2_)" d="M65.72,40.482c1.074,0,1.611,0.381,1.611,1.143c0,0.701-0.321,1.201-0.962,1.5
		c-0.209,0.119-0.366,0.194-0.471,0.224c-0.065,0.019-0.158,0.037-0.271,0.056c1.98,1.621,3.702,3.544,5.097,5.699
		c0.117-0.321,0.21-0.658,0.277-1.013l0.09-1.008c0-1.223-0.568-2.081-1.701-2.574c0.776-0.402,1.376-0.94,1.801-1.611
		c0.425-0.672,0.638-1.418,0.638-2.239c0-0.642-0.198-1.265-0.593-1.868c-0.396-0.605-0.98-1.049-1.757-1.333
		c-0.433-0.193-0.876-0.328-1.332-0.402c-0.456-0.075-1.003-0.113-1.645-0.113c-0.82,0-1.663,0.124-2.529,0.37
		c-0.865,0.246-1.6,0.563-2.204,0.952s-1.13,0.907-1.578,1.557c-0.036,0.052-0.066,0.109-0.101,0.163
		c1.196,0.534,2.341,1.163,3.426,1.874C63.947,40.943,64.68,40.482,65.72,40.482z"/>
	<linearGradient id="SVGID_3_" gradientUnits="userSpaceOnUse" x1="50.0576" y1="87.0566" x2="50.0576" y2="37.8525">
		<stop  offset="0.0056" style="stop-color:#3266A9"/>
		<stop  offset="1" style="stop-color:#0099FF"/>
	</linearGradient>
	<path fill="url(#SVGID_3_)" d="M70.725,49.104c-0.433,1.189-1.208,2.147-2.331,2.871c-1.425,0.918-3.182,1.377-5.271,1.377
		c-1.179,0-2.175-0.176-2.988-0.525c-0.813-0.35-1.444-0.864-1.891-1.543c-0.448-0.678-0.671-1.481-0.671-2.405l0.022-0.694
		l0.156-0.693h4.367l-0.028,0.179v0.179v0.246c0,1.164,0.628,1.746,1.884,1.746c0.635,0,1.201-0.217,1.696-0.649
		c0.495-0.434,0.742-0.94,0.742-1.522c0-0.522-0.194-0.887-0.582-1.097c-0.329-0.208-1.007-0.313-2.036-0.313l0.47-2.754
		l1.141-0.067c0.083-0.011,0.154-0.022,0.221-0.033c-0.674-0.551-1.378-1.067-2.11-1.546c-0.044,0.096-0.087,0.195-0.125,0.302
		h-4.185c0.192-0.837,0.49-1.56,0.884-2.175c-3.064-1.372-6.46-2.133-10.034-2.133c-13.588,0-24.603,11.014-24.603,24.601
		c0,13.59,11.015,24.604,24.603,24.604S74.66,76.043,74.66,62.453C74.66,57.532,73.214,52.949,70.725,49.104z M59.413,59.233
		l-0.168,1.275c-0.538,2.953-1.511,5.404-2.921,7.35c-1.298,1.835-3.016,3.179-5.153,4.028c-2.138,0.851-4.494,1.274-7.067,1.274
		H33.731l4.264-24.198h10.441c1.141,0,2.204,0.073,3.189,0.218c0.984,0.146,1.868,0.364,2.651,0.655
		c1.611,0.537,2.887,1.471,3.827,2.802c0.94,1.332,1.41,2.992,1.41,4.984L59.413,59.233z"/>
</g>
<linearGradient id="SVGID_4_" gradientUnits="userSpaceOnUse" x1="107.3027" y1="105.8555" x2="93.0727" y2="16.0106">
	<stop  offset="0" style="stop-color:#B2B2B2;stop-opacity:0"/>
	<stop  offset="0.2" style="stop-color:#B2B2B2"/>
	<stop  offset="0.8" style="stop-color:#B2B2B2"/>
	<stop  offset="1" style="stop-color:#B2B2B2;stop-opacity:0"/>
</linearGradient>
<rect x="99.875" y="14.933" fill="url(#SVGID_4_)" width="0.625" height="92"/>
<script  xmlns=""></script>
<g transform="translate(0.000000,500.000000) scale(0.100000,-0.100000)">
	<path d="M1423.34,4628.427c-43.174-8.984-79.238-44.297-90.264-88.091c-3.789-15.195-3.789-40.508,0-55.698
		c11.152-44.429,46.973-78.975,91.26-88.101c7.227-1.514,14.307-1.89,28.74-1.514c16.201,0.645,20.508,1.138,29.736,4.18
		c25.576,8.223,44.57,21.382,59.502,41.382c9.492,12.529,15.313,24.053,19.863,38.608c3.164,10.259,3.428,12.783,3.428,33.291
		s-0.264,23.037-3.428,33.291c-12.021,38.979-39.99,67.202-79.365,79.99c-9.609,3.164-12.9,3.545-30.996,3.921
		C1438.262,4629.946,1428.896,4629.565,1423.34,4628.427z"/>
	<path d="M1653.701,4484.13c-18.105-3.794-33.926-12.651-47.471-26.704c-25.059-25.688-32.646-64.8-18.984-98.345
		c6.963-17.217,22.666-35.186,38.35-44.053l7.715-4.434l0.137-70.869v-70.889l19.365-19.248l19.355-19.355l32.793,32.91l32.91,32.91
		l-19.619,19.619l-19.619,19.609l19.365,19.365c10.498,10.635,19.229,19.873,19.229,20.518c0,0.625-6.953,8.223-15.43,16.689
		c-8.486,8.486-15.195,15.713-14.932,15.957c0.371,0.264,5.176,2.91,10.752,6.074c21.006,11.65,37.842,33.418,43.662,56.338
		c3.047,11.89,3.428,34.043,0.635,45.43c-7.461,31.899-33.281,58.35-65.43,67.217
		C1686.738,4485.527,1663.691,4486.162,1653.701,4484.13z M1686.982,4442.114c6.211-4.312,12.285-15.063,12.285-21.89
		c0-6.465-5.322-16.973-10.518-20.894c-5.811-4.434-16.318-6.592-23.027-4.814c-10.889,3.042-19.492,14.175-19.619,25.313
		C1645.976,4440.844,1669.892,4453.876,1686.982,4442.114z"/>
	<path d="M1384.736,4352.246c-58.477-8.994-107.588-50.752-126.084-107.207c-6.318-19.492-7.461-29.365-7.461-66.836v-34.053
		h170.869h170.889v72.158v72.139l-10.137,9.629c-11.396,10.889-20.381,22.529-26.826,34.668l-4.307,8.242l-13.926,4.678
		c-22.656,7.588-33.418,8.613-91.133,8.477C1410.557,4354.003,1392.822,4353.505,1384.736,4352.246z"/>
</g>
</svg>
